<?xml version="1.0" encoding="UTF-8"?>
<svg width="49px" height="87px" viewBox="0 0 49 87" version="1.1" xmlns="http://www.w3.org/2000/svg" xmlns:xlink="http://www.w3.org/1999/xlink">
    <!-- Generator: Sketch 43.1 (39012) - http://www.bohemiancoding.com/sketch -->
    <title>Group</title>
    <desc>Created with Sketch.</desc>
    <defs>
        <linearGradient x1="50%" y1="97.4250638%" x2="50%" y2="0%" id="linearGradient-1">
            <stop stop-color="#FFFFFF" stop-opacity="0.0352411685" offset="0%"></stop>
            <stop stop-color="#F30D0D" stop-opacity="0.293959466" offset="45.6234056%"></stop>
            <stop stop-color="#FF0000" offset="100%"></stop>
        </linearGradient>
    </defs>
    <g id="Page-1" stroke="none" stroke-width="1" fill="none" fill-rule="evenodd" fill-opacity="0.7">
        <g id="close-copy" transform="translate(-163.000000, -265.000000)">
            <g id="Group" transform="translate(163.000000, 265.000000)">
                <g id="CloseRadar" transform="translate(1.000000, 4.000000)" fill="url(#linearGradient-1)">
                    <path d="M0.281279846,4.46334049 C7.62954961,1.58201554 15.630025,0 24,0 C31.9005462,0 39.4718772,1.40953758 46.4762356,3.9908553 L23.3087179,82.1343578 L0.281279846,4.46334049 Z" id="LowRadar"></path>
                </g>
                <path d="M0.259953666,5.01843086 C7.92660684,1.98807821 16.2710938,0.324629844 25,0.324629844 C33.2600178,0.324629844 41.1758066,1.81416802 48.4987413,4.54196737 L46.7171744,10.5511512 C39.9613203,7.98590995 32.6427873,6.58280554 25,6.58280554 C16.8877464,6.58280554 9.14080582,8.16357844 2.04429354,11.0369681 L0.259953666,5.01843086 Z" id="Combined-Shape" fill="#FF0000"></path>
            </g>
        </g>
    </g>
</svg>